<?xml version="1.0" encoding="UTF-8"?>
<svg width="159px" height="30px" viewBox="0 0 159 30" version="1.1" xmlns="http://www.w3.org/2000/svg" xmlns:xlink="http://www.w3.org/1999/xlink">
    <title>logo</title>
    <defs>
        <polygon id="path-1" points="0 30 159 30 159 0 0 0"></polygon>
    </defs>
    <g id="Symbols" stroke="none" stroke-width="1" fill="none" fill-rule="evenodd">
        <g id="header/l" transform="translate(-40.000000, -25.000000)">
            <g id="Default-Header-L">
                <g id="logo" transform="translate(40.000000, 25.000000)">
                    <path d="M10.125,25.68 C6.91902,25.68 4.32,23.08098 4.32,19.875 C4.32,16.668885 6.91902,14.07 10.125,14.07 C13.33098,14.07 15.93,16.668885 15.93,19.875 C15.93,23.08098 13.33098,25.68 10.125,25.68 M10.125,9.75 C4.533165,9.75 0,14.283165 0,19.875 C0,25.466835 4.533165,30 10.125,30 C15.716835,30 20.25,25.466835 20.25,19.875 C20.25,14.283165 15.716835,9.75 10.125,9.75" id="Fill-1" fill="#F2EDDC"></path>
                    <mask id="mask-2" fill="white">
                        <use xlink:href="#path-1"></use>
                    </mask>
                    <g id="Clip-4"></g>
                    <polygon id="Fill-3" fill="#F2EDDC" mask="url(#mask-2)" points="15.75 30 20.25 30 20.25 9.75 15.75 9.75"></polygon>
                    <polygon id="Fill-5" fill="#F2EDDC" mask="url(#mask-2)" points="34.5 30 29.9054239 30 23.25 9.75 27.8445761 9.75"></polygon>
                    <polygon id="Fill-6" fill="#F2EDDC" mask="url(#mask-2)" points="47.9535225 30 43.5 30 50.2966091 9.75 54.75 9.75"></polygon>
                    <polygon id="Fill-7" fill="#F2EDDC" mask="url(#mask-2)" points="48.25 30 43.6555604 30 37 9.75 41.5947127 9.75"></polygon>
                    <polygon id="Fill-8" fill="#F2EDDC" mask="url(#mask-2)" points="34.4535225 30 30 30 36.7964775 9.75 41.25 9.75"></polygon>
                    <path d="M55.5,19.5 C55.5,25.29894 60.033165,30 65.625,30 C71.21697,30 75.75,25.29894 75.75,19.5" id="Fill-9" fill="#F2EDDC" mask="url(#mask-2)"></path>
                    <path d="M60.75,15 C60.75,11.686186 63.2684302,9 66.375,9 C69.4817006,9 72,11.686186 72,15" id="Fill-10" fill="#243752" mask="url(#mask-2)"></path>
                    <polygon id="Fill-11" fill="#F2EDDC" mask="url(#mask-2)" points="79.5 19.5 93 19.5 93 15 79.5 15"></polygon>
                    <path d="M105.375,25.68 C102.16902,25.68 99.57,23.08098 99.57,19.875 C99.57,16.668885 102.16902,14.07 105.375,14.07 C108.581115,14.07 111.18,16.668885 111.18,19.875 C111.18,23.08098 108.581115,25.68 105.375,25.68 M105.375,9.75 C99.783165,9.75 95.25,14.283165 95.25,19.875 C95.25,25.466835 99.783165,30 105.375,30 C110.96697,30 115.5,25.466835 115.5,19.875 C115.5,14.283165 110.96697,9.75 105.375,9.75" id="Fill-12" fill="#F2EDDC" mask="url(#mask-2)"></path>
                    <polygon id="Fill-13" fill="#F2EDDC" mask="url(#mask-2)" points="111 30 115.5 30 115.5 0 111 0"></polygon>
                    <path d="M137.343225,16.75 L118.406775,16.75 C117.98382,17.9122656 117.75,19.1717031 117.75,20.4885156 C117.75,20.744875 117.762015,20.9981406 117.779295,21.25 L137.970975,21.25 C137.98812,20.9981406 138,20.744875 138,20.4885156 C138,19.1717031 137.76645,17.9122656 137.343225,16.75" id="Fill-14" fill="#F2EDDC" mask="url(#mask-2)"></path>
                    <path d="M132.940335,22.71 C131.946465,24.481875 130.0512,25.68 127.875,25.68 C124.668885,25.68 122.07,23.081115 122.07,19.875 C122.07,16.66902 124.668885,14.07 127.875,14.07 C131.081115,14.07 133.68,16.66902 133.68,19.875 C133.68,20.10342 133.665285,20.328465 133.63977,20.55 L137.97516,20.55 C137.98974,20.32671 138,20.10207 138,19.875 C138,14.283165 133.466835,9.75 127.875,9.75 C122.283165,9.75 117.75,14.283165 117.75,19.875 C117.75,25.466835 122.283165,30 127.875,30 C132.48228,30 136.36839,26.92146 137.59473,22.71 L132.940335,22.71 Z" id="Fill-15" fill="#F2EDDC" mask="url(#mask-2)"></path>
                    <polygon id="Fill-16" fill="#F2EDDC" mask="url(#mask-2)" points="141 30 145.5 30 145.5 9.75 141 9.75"></polygon>
                    <path d="M151.321338,14.23 C153.176977,14.23 154.832519,15.09954 155.91736,16.45922 L159,13.23516 C157.11037,11.0961 154.370811,9.75 151.321338,9.75 C145.621069,9.75 141,14.45106 141,20.25 L145.403771,20.25 C145.403771,16.92514 148.053189,14.23 151.321338,14.23" id="Fill-17" fill="#F2EDDC" mask="url(#mask-2)"></path>
                </g>
            </g>
        </g>
    </g>
</svg>
