<svg xmlns="http://www.w3.org/2000/svg" width="27.65" height="17.95" viewBox="0 0 27.65 17.95">
  <title>bike</title>
  <path d="M6.55,18a3.13,3.13,0,0,1-3.18-3.18h.92A2.18,2.18,0,0,0,6.55,17a2.15,2.15,0,0,0,2.22-2.26h.92A3.09,3.09,0,0,1,6.55,18" transform="translate(0)" style="fill: #f5b24d;fill-rule: evenodd"/>
  <path d="M22.75,18a3.13,3.13,0,0,1-3.18-3.18h.92a2.27,2.27,0,0,0,4.53,0h.92A3.13,3.13,0,0,1,22.75,18" transform="translate(0)" style="fill: #f5b24d;fill-rule: evenodd"/>
  <polygon points="4.62 9.69 7.85 9.69 7.85 8.77 4.62 8.77 4.62 9.69" style="fill: #f5b24d;fill-rule: evenodd"/>
  <polygon points="3.69 12 7.85 12 7.85 11.08 3.69 11.08 3.69 12" style="fill: #f5b24d;fill-rule: evenodd"/>
  <path d="M18.55,13.38c.33-.83,1.39-2.3,4.25-2.3a3.63,3.63,0,0,1,3.69,2.3ZM21.14,1.85c.09,0,.6.09.6,1.15s-.51,1.15-.6,1.15h-.62l-.61-2.3Zm6.41,11.9a4.7,4.7,0,0,0-4.8-3.64q-.34,0-.66,0L20.76,5.08h.38a1.36,1.36,0,0,0,1-.42A2.25,2.25,0,0,0,22.66,3a2.25,2.25,0,0,0-.55-1.66,1.43,1.43,0,0,0-1-.42H19.67L19.43,0l-.51.14V0H15.69V.92h3l2.46,9.35a4.67,4.67,0,0,0-3.63,3.12H1.06a6.71,6.71,0,0,1,3-5.58l1.52-.88H1.38V5.54H13l-.33,1.38H10.52l-.09.37c0,.14-.74,3.51,1.62,5.31l.55-.74c-1.52-1.11-1.43-3.18-1.34-4h2.12l.79-3.23H.46V7.85H2.54a8,8,0,0,0-2.54,6v.46H27.65Z" transform="translate(0)" style="fill: #f5b24d;fill-rule: evenodd"/>
</svg>
