<svg xmlns="http://www.w3.org/2000/svg" width="15.79" height="13.87" viewBox="0 0 15.79 13.87">
  <title>filter</title>
  <path d="M4.64,0a2.06,2.06,0,0,0-2,1.48H.56A.56.56,0,0,0,0,2.06a.57.57,0,0,0,.58.58H2.69a2,2,0,0,0,2,1.49,2.09,2.09,0,0,0,2-1.49h8.55a.57.57,0,0,0,.58-.58.57.57,0,0,0-.58-.58H6.66A2.14,2.14,0,0,0,4.64,0Zm0,1.16a.91.91,0,1,1-.9.9A.9.9,0,0,1,4.66,1.16Z" style="fill: #243752"/>
  <path d="M11.62,4.64a2.05,2.05,0,0,0-2,1.48H.58A.56.56,0,0,0,0,6.7a.57.57,0,0,0,.58.58H9.65a2,2,0,0,0,2,1.49,2.07,2.07,0,0,0,2-1.49h1.6a.57.57,0,0,0,.58-.58.57.57,0,0,0-.58-.58h-1.6A2.06,2.06,0,0,0,11.62,4.64Zm0,1.16a.91.91,0,1,1-.9.9A.88.88,0,0,1,11.64,5.8Z" style="fill: #243752"/>
  <path d="M7.42,9.74a2.06,2.06,0,0,0-2,1.48H.58A.56.56,0,0,0,0,11.8a.57.57,0,0,0,.58.58H5.47a2.05,2.05,0,0,0,2,1.49,2.09,2.09,0,0,0,2-1.49h5.77a.57.57,0,0,0,.58-.58.57.57,0,0,0-.58-.58H9.41A2.07,2.07,0,0,0,7.42,9.74Zm0,1.16a.91.91,0,1,1-.9.9A.92.92,0,0,1,7.44,10.9Z" style="fill: #243752"/>
</svg>
