<svg xmlns="http://www.w3.org/2000/svg" width="30.26" height="25.47" viewBox="0 0 30.26 25.47">
  <path d="M30,13.19l.24-.46L30,12.27A17,17,0,0,0,15.13,2.73,15.77,15.77,0,0,0,8.22,4.36L3.86,0,2.44,1.42l4,4L8.87,7.85l2.84,2.88,1.5,1.51,2.46,2.46,1.51,1.5,2.87,2.87,2,2.05,4.34,4.35,1.42-1.42-4-4A18.37,18.37,0,0,0,30,13.19Zm-12.95,0-2.42-2.42a2.59,2.59,0,0,1,.48,0,2,2,0,0,1,2,2,2,2,0,0,1-.06.48Zm4.39,4.39-2.88-2.85a4,4,0,0,0-5.45-5.45L10.26,6.4a8,8,0,0,1,11.2,11.2Zm2.39,0a10,10,0,0,0,0-9.78A16.51,16.51,0,0,1,28,12.73a16.37,16.37,0,0,1-4.14,4.89Z"></path>
  <path d="M18.28,20.08A8,8,0,0,1,7.78,9.58L6.29,8.09a9.93,9.93,0,0,0,.12,9.53,16.37,16.37,0,0,1-4.14-4.89A16.31,16.31,0,0,1,6.27,8L4.79,6.59A18.44,18.44,0,0,0,.24,12.27L0,12.73l.24.46a17,17,0,0,0,14.89,9.54,15.48,15.48,0,0,0,5-.84Z"></path>
</svg>
