<svg xmlns="http://www.w3.org/2000/svg" width="318.7" height="259.09" viewBox="0 0 318.7 259.09">
  <path d="M100.2,259.09c120.3,0,186.1-99.7,186.1-186.1,0-2.8,0-5.6-.2-8.5a133,133,0,0,0,32.6-33.9,128.82,128.82,0,0,1-37.6,10.3,65.54,65.54,0,0,0,28.8-36.2,131.75,131.75,0,0,1-41.5,15.9A65.45,65.45,0,0,0,157,80.29,185.7,185.7,0,0,1,22.2,12a65.43,65.43,0,0,0,20.2,87.3,64.57,64.57,0,0,1-29.7-8.2v.8A65.5,65.5,0,0,0,65.2,156a65.34,65.34,0,0,1-29.5,1.1,65.49,65.49,0,0,0,61.1,45.4,131.6,131.6,0,0,1-81.2,28.1,136,136,0,0,1-15.6-.9,185,185,0,0,0,100.2,29.4" transform="translate(0 0)"></path>
</svg>
