<svg xmlns="http://www.w3.org/2000/svg" width="98.32" height="51.74" viewBox="0 0 98.32 51.74">
  <title>upload</title>
  <path d="M57.52,0a24.84,24.84,0,0,1,23.6,17.18,17.28,17.28,0,0,1,0,34.56H50.84V41.45l4.6,4.29a1,1,0,0,0,1.36,0h0l1-.9,0-.05a1,1,0,0,0,0-1.41h0l-7.28-6.79h0l-1-.9a1,1,0,0,0-.68-.26,1,1,0,0,0-.68.26h0l-1,.9,0,.05-7.24,6.75,0,0a1,1,0,0,0,0,1.41h0l1,.9a1,1,0,0,0,1.37,0h0l4.6-4.29V51.74H14A14,14,0,0,1,0,38v-.32a14,14,0,0,1,13.28-14,17.24,17.24,0,0,1,24.3-13.58A24.74,24.74,0,0,1,57.52,0Z" style="fill: #c7c7c7;fill-opacity: 0.6000000238418579;fill-rule: evenodd"/>
</svg>
