<svg xmlns="http://www.w3.org/2000/svg" width="30.26" height="20" viewBox="0 0 30.26 20">
  <path d="M30,12.27A17,17,0,0,0,15.13,2.73,17,17,0,0,0,.24,12.27L0,12.73l.24.46a17,17,0,0,0,14.89,9.54A17,17,0,0,0,30,13.19l.24-.46Zm-6.89.46a8,8,0,1,1-8-8A8,8,0,0,1,23.13,12.73Zm-20.86,0A16.37,16.37,0,0,1,6.41,7.84a10,10,0,0,0,0,9.78A16.37,16.37,0,0,1,2.27,12.73Zm21.58,4.89a10,10,0,0,0,0-9.78A16.37,16.37,0,0,1,28,12.73,16.37,16.37,0,0,1,23.85,17.62Z" transform="translate(0 -2.73)"></path>
  <path d="M15.13,16.73a4,4,0,1,0-4-4A4,4,0,0,0,15.13,16.73Zm0-6a2,2,0,1,1-2,2A2,2,0,0,1,15.13,10.73Z" transform="translate(0 -2.73)"></path>
</svg>
